<svg preserveAspectRatio="none" width="100%" height="100%" overflow="visible" style="display: block;" viewBox="0 0 15 15" fill="none" xmlns="http://www.w3.org/2000/svg">
<path id="Subtract" d="M10.833 0C11.2931 0 11.6668 0.37292 11.667 0.833008V1.66699H13.333C14.2534 1.66699 14.9998 2.41268 15 3.33301V13.333C15 14.2535 14.2535 15 13.333 15H1.66699C0.746518 15 0 14.2535 0 13.333V3.33301C0.000176072 2.41268 0.746626 1.66699 1.66699 1.66699H3.33301V0.833008C3.33318 0.37292 3.70686 0 4.16699 0C4.62697 0.000175887 4.99982 0.373029 5 0.833008V1.66699H10V0.833008C10.0002 0.373029 10.373 0.000175694 10.833 0ZM4.16699 10.667C3.61471 10.667 3.16699 11.1147 3.16699 11.667C3.16717 12.2191 3.61482 12.667 4.16699 12.667H4.17578C4.7276 12.6666 5.17561 12.2189 5.17578 11.667C5.17578 11.115 4.72771 10.6674 4.17578 10.667H4.16699ZM7.5 10.667C6.94772 10.667 6.5 11.1147 6.5 11.667C6.50018 12.2191 6.94782 12.667 7.5 12.667H7.50879C8.06076 12.6667 8.50861 12.219 8.50879 11.667C8.50879 11.1149 8.06086 10.6672 7.50879 10.667H7.5ZM10.833 10.667C10.2809 10.6672 9.83301 11.1148 9.83301 11.667C9.83318 12.219 10.281 12.6668 10.833 12.667H10.8418C11.3938 12.6667 11.8416 12.219 11.8418 11.667C11.8418 11.1149 11.3939 10.6672 10.8418 10.667H10.833ZM4.16699 7.33301C3.61482 7.33301 3.16717 7.78087 3.16699 8.33301C3.16699 8.88529 3.61471 9.33301 4.16699 9.33301H4.17578C4.72771 9.33259 5.17578 8.88503 5.17578 8.33301C5.17561 7.78113 4.7276 7.33343 4.17578 7.33301H4.16699ZM7.5 7.33301C6.94782 7.33301 6.50018 7.78087 6.5 8.33301C6.5 8.88529 6.94772 9.33301 7.5 9.33301H7.50879C8.06086 9.33276 8.50879 8.88514 8.50879 8.33301C8.50861 7.78102 8.06076 7.33325 7.50879 7.33301H7.5ZM10.833 7.33301C10.281 7.33318 9.83318 7.78098 9.83301 8.33301C9.83301 8.88518 10.2809 9.33283 10.833 9.33301H10.8418C11.3939 9.33276 11.8418 8.88514 11.8418 8.33301C11.8416 7.78102 11.3938 7.33325 10.8418 7.33301H10.833ZM1.66699 5H13.333V3.33301H1.66699V5Z" fill="var(--fill-0, #A4A4A4)"/>
</svg>
